<svg xmlns="http://www.w3.org/2000/svg" width="166.662" height="166.607" viewBox="0 0 166.662 166.607"><g transform="translate(-24.31 -24.31)"><path d="M185.414,172.772H29.813a5.5,5.5,0,0,1-5.5-5.5V40.163a5.5,5.5,0,0,1,5.5-5.5h155.6a5.5,5.5,0,0,1,5.5,5.5V167.27A5.5,5.5,0,0,1,185.414,172.772Zm-150.1-11.006H179.911V45.666H35.316Z" transform="translate(0 1.041)" fill="#fff"/><path d="M50.5,58.087a5.5,5.5,0,0,1-5.5-5.5V29.813a5.5,5.5,0,1,1,11.006,0V52.584A5.5,5.5,0,0,1,50.5,58.087Z" transform="translate(2.081)" fill="#fff"/><path d="M150.5,58.087a5.5,5.5,0,0,1-5.5-5.5V29.813a5.5,5.5,0,0,1,11.006,0V52.584A5.5,5.5,0,0,1,150.5,58.087Z" transform="translate(12.14)" fill="#fff"/><path d="M175.85,178.777H39.443A15.155,15.155,0,0,1,24.31,163.644V150.5a5.5,5.5,0,1,1,11.006,0v13.141a4.127,4.127,0,0,0,4.127,4.127H175.85a4.127,4.127,0,0,0,4.116-4.127V150.5a5.5,5.5,0,0,1,11.006,0v13.141a15.155,15.155,0,0,1-15.122,15.133Z" transform="translate(0 12.14)" fill="#fff"/><path d="M50.5,81.008a5.129,5.129,0,0,1-1.1-.11,5.5,5.5,0,0,1-1.024-.308,5.657,5.657,0,0,1-.958-.506,5.5,5.5,0,0,1-.836-.682,6.131,6.131,0,0,1-.682-.836,6.6,6.6,0,0,1-.506-.958,5.5,5.5,0,0,1-.286-1,5.338,5.338,0,0,1,0-2.2,5.5,5.5,0,0,1,.308-1.024,6.6,6.6,0,0,1,.506-.958A5.349,5.349,0,0,1,47.444,70.9,5.657,5.657,0,0,1,48.4,70.4a5.5,5.5,0,0,1,4.2,0,6.009,6.009,0,0,1,.947.506,5.58,5.58,0,0,1,1.53,1.519,6.6,6.6,0,0,1,.506.958A5.5,5.5,0,0,1,55.9,74.4a5.338,5.338,0,0,1,0,2.2,5.5,5.5,0,0,1-.308,1.024,6.6,6.6,0,0,1-.506.958,5.58,5.58,0,0,1-1.53,1.519,6.008,6.008,0,0,1-.947.506,5.5,5.5,0,0,1-1.024.308,5.129,5.129,0,0,1-1.079.088Z" transform="translate(2.081 4.594)" fill="#fff"/><path d="M67.175,81.01a5.052,5.052,0,0,1-1.1-.11,5.855,5.855,0,0,1-1.035-.308,6.009,6.009,0,0,1-.946-.506,5.5,5.5,0,0,1-.836-.682,6.13,6.13,0,0,1-.682-.836,5.713,5.713,0,0,1-.506-.958,5.5,5.5,0,0,1-.319-1.024,5.921,5.921,0,0,1,0-2.2,5.5,5.5,0,0,1,.319-1.024,5.712,5.712,0,0,1,.506-.958,5.349,5.349,0,0,1,1.519-1.519,6.009,6.009,0,0,1,.946-.506,5.856,5.856,0,0,1,1.035-.308,5.5,5.5,0,0,1,2.2,0,5.744,5.744,0,0,1,1.024.308,6.009,6.009,0,0,1,.947.506,5.03,5.03,0,0,1,.836.682,5.5,5.5,0,0,1,1.585,3.94,5.954,5.954,0,0,1-.1,1.1,5.5,5.5,0,0,1-.319,1.024,5.711,5.711,0,0,1-.506.958,5.5,5.5,0,0,1-.682.836,5.029,5.029,0,0,1-.836.682,6.008,6.008,0,0,1-.946.506,5.744,5.744,0,0,1-1.024.308,5.206,5.206,0,0,1-1.079.088Z" transform="translate(3.755 4.592)" fill="#fff"/><path d="M83.833,81.008a5.029,5.029,0,0,1-1.1-.11A5.592,5.592,0,0,1,81.7,80.59a6.009,6.009,0,0,1-.947-.506,5.646,5.646,0,0,1-.836-.682,5.5,5.5,0,0,1-1.585-3.9,5.129,5.129,0,0,1,.11-1.1,5.5,5.5,0,0,1,.308-1.024,5.768,5.768,0,0,1,.517-.958,6.132,6.132,0,0,1,.682-.836,5.03,5.03,0,0,1,.836-.682,6.01,6.01,0,0,1,.947-.506,5.591,5.591,0,0,1,1.035-.308,5.415,5.415,0,0,1,2.2,0A5.854,5.854,0,0,1,86,70.4a6.009,6.009,0,0,1,.947.506,5.5,5.5,0,0,1,.836.682,6.131,6.131,0,0,1,.682.836,6.6,6.6,0,0,1,.506.958,5.5,5.5,0,0,1,.308,1.024,5.128,5.128,0,0,1,.11,1.1,5.5,5.5,0,0,1-1.607,3.9,6.285,6.285,0,0,1-.836.682A6.009,6.009,0,0,1,86,80.59a5.855,5.855,0,0,1-1.035.308,5.051,5.051,0,0,1-1.134.11Z" transform="translate(5.434 4.593)" fill="#fff"/><path d="M133.836,81.01a5.03,5.03,0,0,1-1.1-.11,5.591,5.591,0,0,1-1.035-.308,6.008,6.008,0,0,1-.947-.506,5.029,5.029,0,0,1-.836-.682,6.36,6.36,0,0,1-.693-.836,6.6,6.6,0,0,1-.506-.958,5.5,5.5,0,0,1-.308-1.024,5.338,5.338,0,0,1,0-2.2,5.5,5.5,0,0,1,.308-1.024,6.6,6.6,0,0,1,.506-.958,6.361,6.361,0,0,1,.693-.836,5.028,5.028,0,0,1,.836-.682,6.008,6.008,0,0,1,.946-.506,5.591,5.591,0,0,1,1.035-.308,5.415,5.415,0,0,1,2.146,0,5.5,5.5,0,0,1,1.024.308,5.658,5.658,0,0,1,.958.506,5.349,5.349,0,0,1,1.519,1.519,5.711,5.711,0,0,1,.506.958,5.5,5.5,0,0,1,.319,1.024,5.921,5.921,0,0,1,0,2.2,5.5,5.5,0,0,1-.319,1.024,5.711,5.711,0,0,1-.506.958,5.349,5.349,0,0,1-1.519,1.519,5.657,5.657,0,0,1-.958.506,5.5,5.5,0,0,1-1.024.308,5.051,5.051,0,0,1-1.046.11Z" transform="translate(10.459 4.592)" fill="#fff"/><path d="M117.173,81.008a5.5,5.5,0,0,1-3.9-1.607,5.612,5.612,0,0,1-.682-.847,5.217,5.217,0,0,1-.506-.947,5.5,5.5,0,0,1-.319-1.024,5.955,5.955,0,0,1-.1-1.1,5.5,5.5,0,0,1,7.605-5.085,6.01,6.01,0,0,1,.947.506,5.03,5.03,0,0,1,.836.682,5.5,5.5,0,0,1,.682.836,5.713,5.713,0,0,1,.506.958,5.5,5.5,0,0,1,.319,1.024,5.338,5.338,0,0,1,0,2.2,5.5,5.5,0,0,1-.319,1.024,5.582,5.582,0,0,1-2.025,2.476,6.008,6.008,0,0,1-.947.506,5.592,5.592,0,0,1-1.035.308A5.03,5.03,0,0,1,117.173,81.008Z" transform="translate(8.787 4.594)" fill="#fff"/><path d="M100.5,81.008a5.129,5.129,0,0,1-1.1-.11,5.5,5.5,0,0,1-1.024-.308,6.008,6.008,0,0,1-.947-.506,5.117,5.117,0,0,1-.847-.682A5.5,5.5,0,0,1,95,75.5a5.128,5.128,0,0,1,.11-1.1,5.5,5.5,0,0,1,.308-1.024,6.6,6.6,0,0,1,.506-.958,6.131,6.131,0,0,1,.682-.836,5.118,5.118,0,0,1,.847-.682A6.01,6.01,0,0,1,98.4,70.4a5.5,5.5,0,0,1,4.2,0,6.009,6.009,0,0,1,.946.506,5.03,5.03,0,0,1,.836.682,5.5,5.5,0,0,1,.693.836,6.6,6.6,0,0,1,.506.958A5.505,5.505,0,0,1,105.9,74.4a5.129,5.129,0,0,1,.11,1.1,5.5,5.5,0,0,1-1.617,3.9,5.03,5.03,0,0,1-.837.683,6.008,6.008,0,0,1-.946.506,5.5,5.5,0,0,1-1.024.308A5.129,5.129,0,0,1,100.5,81.008Z" transform="translate(7.11 4.594)" fill="#fff"/><path d="M150.5,81.006a5.5,5.5,0,0,1-3.06-10.081,5.656,5.656,0,0,1,.958-.506,5.5,5.5,0,0,1,4.2,0,6.605,6.605,0,0,1,.958.506A5.5,5.5,0,0,1,154.4,79.4,5.58,5.58,0,0,1,150.5,81.006Z" transform="translate(12.139 4.596)" fill="#fff"/><path d="M50.5,101.008a5.128,5.128,0,0,1-1.1-.11,5.5,5.5,0,0,1-1.024-.308,5.656,5.656,0,0,1-.958-.506,5.5,5.5,0,0,1-.836-.682,5.613,5.613,0,0,1-.682-.847,6.01,6.01,0,0,1-.506-.947,5.5,5.5,0,0,1-.286-1,5.338,5.338,0,0,1,0-2.2,5.5,5.5,0,0,1,.308-1.024,6.6,6.6,0,0,1,.506-.958A5.349,5.349,0,0,1,47.444,90.9,5.658,5.658,0,0,1,48.4,90.4a5.5,5.5,0,0,1,4.2,0,6.009,6.009,0,0,1,.947.506,5.58,5.58,0,0,1,1.53,1.519,6.6,6.6,0,0,1,.506.958A5.5,5.5,0,0,1,55.9,94.4a5.338,5.338,0,0,1,0,2.2,5.5,5.5,0,0,1-.308,1.024,6.008,6.008,0,0,1-.506.947,5.426,5.426,0,0,1-1.53,1.53,6.008,6.008,0,0,1-.947.506,5.5,5.5,0,0,1-1.024.308A5.129,5.129,0,0,1,50.5,101.008Z" transform="translate(2.081 6.606)" fill="#fff"/><path d="M67.175,101.01a5.052,5.052,0,0,1-1.1-.11,5.856,5.856,0,0,1-1.035-.308,6.01,6.01,0,0,1-.946-.506,5.349,5.349,0,0,1-1.519-1.519,5.712,5.712,0,0,1-.506-.958,5.5,5.5,0,0,1-.319-1.024,5.921,5.921,0,0,1,0-2.2,5.5,5.5,0,0,1,.319-1.024,5.712,5.712,0,0,1,.506-.958,6.13,6.13,0,0,1,.682-.836,6.285,6.285,0,0,1,.836-.682,6.009,6.009,0,0,1,.947-.506,5.856,5.856,0,0,1,1.035-.308,5.5,5.5,0,0,1,2.2,0,5.745,5.745,0,0,1,1.024.308,6.01,6.01,0,0,1,.947.506,5.645,5.645,0,0,1,.836.682,6.13,6.13,0,0,1,.682.836,5.712,5.712,0,0,1,.506.958,5.5,5.5,0,0,1,.319,1.024,5.921,5.921,0,0,1,0,2.2,5.5,5.5,0,0,1-.319,1.024,5.711,5.711,0,0,1-.506.957,5.5,5.5,0,0,1-.682.836,5.029,5.029,0,0,1-.836.682,6.008,6.008,0,0,1-.946.506,5.745,5.745,0,0,1-1.024.308A5.206,5.206,0,0,1,67.175,101.01Z" transform="translate(3.755 6.603)" fill="#fff"/><path d="M83.833,101.008a5.03,5.03,0,0,1-1.1-.11,5.592,5.592,0,0,1-1.035-.308,6.008,6.008,0,0,1-.946-.506,5.029,5.029,0,0,1-.836-.682,5.5,5.5,0,0,1-1.585-3.9,5.129,5.129,0,0,1,.11-1.1,5.5,5.5,0,0,1,.308-1.024,5.768,5.768,0,0,1,.517-.958,5.5,5.5,0,0,1,.682-.836,5.03,5.03,0,0,1,.836-.682,6.011,6.011,0,0,1,.947-.506,5.59,5.59,0,0,1,1.035-.308,5.415,5.415,0,0,1,2.2,0A5.855,5.855,0,0,1,86,90.4a6.01,6.01,0,0,1,.946.506,5.349,5.349,0,0,1,1.519,1.519,6.6,6.6,0,0,1,.506.958,5.5,5.5,0,0,1,.308,1.024,5.129,5.129,0,0,1,.11,1.1,5.5,5.5,0,0,1-2.443,4.578,6.009,6.009,0,0,1-.947.506,5.855,5.855,0,0,1-1.035.308,5.051,5.051,0,0,1-1.134.11Z" transform="translate(5.434 6.605)" fill="#fff"/><path d="M133.836,101.01a5.03,5.03,0,0,1-1.1-.11,5.592,5.592,0,0,1-1.035-.308,6.008,6.008,0,0,1-.946-.506,5.029,5.029,0,0,1-.836-.682,6.363,6.363,0,0,1-.693-.836,6.6,6.6,0,0,1-.506-.958,5.5,5.5,0,0,1-.308-1.024,5.128,5.128,0,0,1-.11-1.1,5.05,5.05,0,0,1,.11-1.1,5.5,5.5,0,0,1,.308-1.024,6.6,6.6,0,0,1,.506-.958,6.261,6.261,0,0,1,.693-.825,4.589,4.589,0,0,1,.836-.693,6.009,6.009,0,0,1,.946-.506,5.592,5.592,0,0,1,1.035-.308,5.415,5.415,0,0,1,2.146,0,5.5,5.5,0,0,1,1.024.308,5.658,5.658,0,0,1,.958.506,5,5,0,0,1,.836.693,5.436,5.436,0,0,1,.682.825,5.712,5.712,0,0,1,.506.958,5.5,5.5,0,0,1,.319,1.024,5.865,5.865,0,0,1,.1,1.1,5.955,5.955,0,0,1-.1,1.1,5.5,5.5,0,0,1-.319,1.024,5.711,5.711,0,0,1-.506.958,5.349,5.349,0,0,1-1.519,1.519,5.656,5.656,0,0,1-.958.506,5.5,5.5,0,0,1-1.024.308,5.052,5.052,0,0,1-1.046.11Z" transform="translate(10.46 6.604)" fill="#fff"/><path d="M117.173,101.008a5.5,5.5,0,0,1-5.5-5.5,5.955,5.955,0,0,1,.1-1.1,5.5,5.5,0,0,1,.319-1.024,5.217,5.217,0,0,1,.506-.947,5.5,5.5,0,0,1,6.681-2.036,6.009,6.009,0,0,1,.947.506,5.582,5.582,0,0,1,2.025,2.476,5.5,5.5,0,0,1,.319,1.024,5.338,5.338,0,0,1,0,2.2,5.5,5.5,0,0,1-.319,1.024,5.711,5.711,0,0,1-.506.958,5.5,5.5,0,0,1-.682.836,5.03,5.03,0,0,1-.836.682,6.009,6.009,0,0,1-.946.506,5.592,5.592,0,0,1-1.035.308,5.03,5.03,0,0,1-1.068.088Z" transform="translate(8.787 6.606)" fill="#fff"/><path d="M100.5,101.008a5.129,5.129,0,0,1-1.1-.11,5.5,5.5,0,0,1-1.024-.308,6.009,6.009,0,0,1-.947-.506,5.117,5.117,0,0,1-.847-.682,5.5,5.5,0,0,1-.682-.836,6.6,6.6,0,0,1-.506-.958,5.5,5.5,0,0,1-.286-1,5.338,5.338,0,0,1,0-2.2,5.5,5.5,0,0,1,.308-1.024,6.6,6.6,0,0,1,.506-.958,5.5,5.5,0,0,1,.682-.836,5.117,5.117,0,0,1,.847-.682A6.01,6.01,0,0,1,98.4,90.4a5.5,5.5,0,0,1,4.2,0,6.012,6.012,0,0,1,.947.506,5.58,5.58,0,0,1,1.53,1.519,6.6,6.6,0,0,1,.506.958A5.5,5.5,0,0,1,105.9,94.4a5.338,5.338,0,0,1,0,2.2,5.5,5.5,0,0,1-.308,1.024,6.6,6.6,0,0,1-.506.958,5.58,5.58,0,0,1-1.53,1.519,6.006,6.006,0,0,1-.947.506,5.5,5.5,0,0,1-1.024.308A5.129,5.129,0,0,1,100.5,101.008Z" transform="translate(7.11 6.606)" fill="#fff"/><path d="M150.5,101a5.129,5.129,0,0,1-1.1-.11,5.5,5.5,0,0,1-1.024-.308,5.657,5.657,0,0,1-.957-.506,6.284,6.284,0,0,1-.836-.682,5.5,5.5,0,1,1,7.792,0,6.286,6.286,0,0,1-.836.682,6.6,6.6,0,0,1-.958.506,5.5,5.5,0,0,1-1.024.308,5.128,5.128,0,0,1-1.057.11Z" transform="translate(12.138 6.608)" fill="#fff"/><path d="M50.505,121.01a5.128,5.128,0,0,1-1.1-.11,5.5,5.5,0,0,1-1.024-.308,5.658,5.658,0,0,1-.958-.506,5.349,5.349,0,0,1-1.519-1.519,6.6,6.6,0,0,1-.506-.958,5.5,5.5,0,0,1-.308-1.024,5.338,5.338,0,0,1,0-2.2,5.5,5.5,0,0,1,.308-1.024,6.6,6.6,0,0,1,.506-.958,5.349,5.349,0,0,1,1.519-1.519,5.657,5.657,0,0,1,.958-.506,5.5,5.5,0,0,1,4.2,0,6.009,6.009,0,0,1,.947.506,5.58,5.58,0,0,1,1.53,1.519,6.6,6.6,0,0,1,.506.958,5.5,5.5,0,0,1,.308,1.024,5.128,5.128,0,0,1,.11,1.1,5.5,5.5,0,0,1-1.617,3.9,5.03,5.03,0,0,1-.837.683,6.009,6.009,0,0,1-.947.506,5.5,5.5,0,0,1-1.024.308A5.13,5.13,0,0,1,50.505,121.01Z" transform="translate(2.079 8.615)" fill="#fff"/><path d="M67.175,121.01a5.052,5.052,0,0,1-1.1-.11,5.856,5.856,0,0,1-1.035-.308,6.01,6.01,0,0,1-.947-.506,5.349,5.349,0,0,1-1.519-1.519,5.712,5.712,0,0,1-.506-.958,5.5,5.5,0,0,1-.319-1.024,5.921,5.921,0,0,1,0-2.2,5.5,5.5,0,0,1,.319-1.024,5.712,5.712,0,0,1,.506-.958,5.349,5.349,0,0,1,1.519-1.519,6.01,6.01,0,0,1,.946-.506,5.856,5.856,0,0,1,1.035-.308,5.5,5.5,0,0,1,2.2,0,5.745,5.745,0,0,1,1.024.308,6.01,6.01,0,0,1,.947.506,5.03,5.03,0,0,1,.836.682,5.5,5.5,0,0,1,1.585,3.94,5.954,5.954,0,0,1-.1,1.1,5.5,5.5,0,0,1-.319,1.024,5.711,5.711,0,0,1-.506.958,5.5,5.5,0,0,1-.682.836,5.03,5.03,0,0,1-.836.682,6.009,6.009,0,0,1-.947.506,5.745,5.745,0,0,1-1.024.308A5.2,5.2,0,0,1,67.175,121.01Z" transform="translate(3.755 8.615)" fill="#fff"/><path d="M83.836,121.01a5.03,5.03,0,0,1-1.1-.11,5.592,5.592,0,0,1-1.035-.308,6.01,6.01,0,0,1-.947-.506,5.029,5.029,0,0,1-.836-.682,5.5,5.5,0,0,1-.682-.836,5.767,5.767,0,0,1-.517-.958,5.5,5.5,0,0,1-.308-1.024,5.052,5.052,0,0,1-.11-1.1,5.2,5.2,0,0,1,.11-1.1,5.5,5.5,0,0,1,.308-1.024,5.272,5.272,0,0,1,.517-.947,5.117,5.117,0,0,1,.682-.847,5.03,5.03,0,0,1,.836-.682,6.009,6.009,0,0,1,.947-.506,5.59,5.59,0,0,1,1.035-.308,5.415,5.415,0,0,1,2.2,0,5.855,5.855,0,0,1,1.035.308,6.01,6.01,0,0,1,.946.506,5.5,5.5,0,0,1,.836.682,5.117,5.117,0,0,1,.682.847,6.008,6.008,0,0,1,.506.947,5.5,5.5,0,0,1,.308,1.024,5.206,5.206,0,0,1,.11,1.1,5.051,5.051,0,0,1-.11,1.1,5.5,5.5,0,0,1-.308,1.024,6.6,6.6,0,0,1-.506.958,5.349,5.349,0,0,1-1.519,1.519,6.01,6.01,0,0,1-.947.506,5.854,5.854,0,0,1-1.035.308A5.052,5.052,0,0,1,83.836,121.01Z" transform="translate(5.431 8.615)" fill="#fff"/><path d="M133.836,121.006a5.03,5.03,0,0,1-1.1-.11,5.592,5.592,0,0,1-1.035-.308,6.008,6.008,0,0,1-.947-.506,5.029,5.029,0,0,1-.836-.682,5.5,5.5,0,0,1,0-7.792,5.645,5.645,0,0,1,.836-.682,6.008,6.008,0,0,1,.946-.506,5.591,5.591,0,0,1,1.035-.308,5.415,5.415,0,0,1,2.146,0,5.5,5.5,0,0,1,1.024.308,5.657,5.657,0,0,1,.958.506,6.285,6.285,0,0,1,.836.682,5.5,5.5,0,0,1-.836,8.474,5.657,5.657,0,0,1-.958.506,5.5,5.5,0,0,1-1.024.308A5.052,5.052,0,0,1,133.836,121.006Z" transform="translate(10.46 8.619)" fill="#fff"/><path d="M117.173,121.008a5.5,5.5,0,0,1-5.5-5.5,6.054,6.054,0,0,1,.1-1.1,5.5,5.5,0,0,1,.319-1.024,5.712,5.712,0,0,1,.506-.958,5.5,5.5,0,0,1,5.646-2.333,5.591,5.591,0,0,1,1.035.308,6.009,6.009,0,0,1,.947.506,5.03,5.03,0,0,1,.836.682,5.591,5.591,0,0,1,1.618,3.9,5.877,5.877,0,0,1-.11,1.1,5.5,5.5,0,0,1-.319,1.024,5.316,5.316,0,0,1-.506.958,5.5,5.5,0,0,1-.682.836,5.03,5.03,0,0,1-.836.682,6.008,6.008,0,0,1-.946.506,5.591,5.591,0,0,1-1.035.308A5.03,5.03,0,0,1,117.173,121.008Z" transform="translate(8.787 8.618)" fill="#fff"/><path d="M100.505,121.01a5.128,5.128,0,0,1-1.1-.11,5.5,5.5,0,0,1-1.024-.308,6.009,6.009,0,0,1-.947-.506,5.116,5.116,0,0,1-.847-.682,5.5,5.5,0,0,1-.682-.836,6.6,6.6,0,0,1-.506-.958,5.5,5.5,0,0,1-.308-1.024,5.338,5.338,0,0,1,0-2.2,5.5,5.5,0,0,1,.308-1.024,6.6,6.6,0,0,1,.506-.958,5.5,5.5,0,0,1,.682-.836,5.117,5.117,0,0,1,.847-.682,6.008,6.008,0,0,1,.947-.506,5.5,5.5,0,0,1,4.2,0,6.011,6.011,0,0,1,.947.506,5.58,5.58,0,0,1,1.53,1.519,6.6,6.6,0,0,1,.506.958,5.5,5.5,0,0,1,.308,1.024,5.338,5.338,0,0,1,0,2.2,5.5,5.5,0,0,1-.308,1.024,6.6,6.6,0,0,1-.506.958,5.58,5.58,0,0,1-1.53,1.519,6.006,6.006,0,0,1-.947.506,5.5,5.5,0,0,1-1.024.308,5.128,5.128,0,0,1-1.057.11Z" transform="translate(7.108 8.615)" fill="#fff"/><path d="M150.505,121.011a5.128,5.128,0,0,1-1.1-.11,5.5,5.5,0,0,1-1.024-.308,5.657,5.657,0,0,1-.958-.506,5.5,5.5,0,0,1-.836-.682,5.614,5.614,0,0,1-.682-.847,6.01,6.01,0,0,1-.506-.947,5.5,5.5,0,0,1-.308-1.024,5.338,5.338,0,0,1,0-2.2,5.5,5.5,0,0,1,.308-1.024,6.6,6.6,0,0,1,.506-.958,5.495,5.495,0,0,1,9.157,0,6.6,6.6,0,0,1,.506.958,5.5,5.5,0,0,1,.308,1.024,5.338,5.338,0,0,1,0,2.2,5.5,5.5,0,0,1-.308,1.024,6.008,6.008,0,0,1-.506.947,5.612,5.612,0,0,1-.682.847,5.5,5.5,0,0,1-.836.682,6.6,6.6,0,0,1-.958.506,5.5,5.5,0,0,1-1.024.308A5.128,5.128,0,0,1,150.505,121.011Z" transform="translate(12.137 8.614)" fill="#fff"/><path d="M50.505,141.01a5.129,5.129,0,0,1-1.1-.11,5.5,5.5,0,0,1-1.024-.308,5.657,5.657,0,0,1-.958-.506,5.6,5.6,0,0,1-.836-.693,5.436,5.436,0,0,1-.682-.825,6.6,6.6,0,0,1-.506-.958,5.5,5.5,0,0,1-.308-1.024,5.338,5.338,0,0,1,0-2.2,5.5,5.5,0,0,1,.308-1.024,6.6,6.6,0,0,1,.506-.958,5.437,5.437,0,0,1,.682-.825,5.6,5.6,0,0,1,.836-.693,5.658,5.658,0,0,1,.958-.506,5.5,5.5,0,0,1,4.2,0,6.01,6.01,0,0,1,.946.506,5.1,5.1,0,0,1,.836.693,4.931,4.931,0,0,1,.693.825,6.6,6.6,0,0,1,.506.958,5.5,5.5,0,0,1,.308,1.024,5.338,5.338,0,0,1,0,2.2,5.5,5.5,0,0,1-.308,1.024,6.6,6.6,0,0,1-.506.958,4.931,4.931,0,0,1-.693.825,5.1,5.1,0,0,1-.836.693,6.009,6.009,0,0,1-.946.506,5.5,5.5,0,0,1-1.024.308,5.128,5.128,0,0,1-1.057.11Z" transform="translate(2.079 10.627)" fill="#fff"/><path d="M67.173,141.008a5.051,5.051,0,0,1-1.1-.11,5.856,5.856,0,0,1-1.035-.308,6.009,6.009,0,0,1-.947-.506,6.285,6.285,0,0,1-.836-.682,5.58,5.58,0,0,1-1.585-3.9,5.954,5.954,0,0,1,.1-1.1,5.5,5.5,0,0,1,.319-1.024,5.217,5.217,0,0,1,.506-.947,5.614,5.614,0,0,1,.682-.847,6.284,6.284,0,0,1,.836-.682,6.011,6.011,0,0,1,.947-.506,5.856,5.856,0,0,1,1.035-.308,5.5,5.5,0,0,1,2.2,0,5.747,5.747,0,0,1,1.024.308,6.01,6.01,0,0,1,.947.506,5.582,5.582,0,0,1,2.025,2.476,5.5,5.5,0,0,1,.319,1.024,5.954,5.954,0,0,1,.1,1.1,5.866,5.866,0,0,1-.1,1.1,5.5,5.5,0,0,1-.319,1.024,5.581,5.581,0,0,1-2.025,2.476,6.009,6.009,0,0,1-.946.506,5.746,5.746,0,0,1-1.024.308,5.207,5.207,0,0,1-1.123.088Z" transform="translate(3.758 10.629)" fill="#fff"/><path d="M83.836,141.008a5.03,5.03,0,0,1-1.1-.11,5.59,5.59,0,0,1-1.035-.308,6.009,6.009,0,0,1-.947-.506,5.03,5.03,0,0,1-.836-.682,5.5,5.5,0,0,1-.682-.836,5.765,5.765,0,0,1-.517-.957,5.5,5.5,0,0,1-.308-1.024,5.129,5.129,0,0,1-.11-1.1,5.5,5.5,0,0,1,1.617-3.9,5.029,5.029,0,0,1,.837-.683,6.011,6.011,0,0,1,.947-.506,5.589,5.589,0,0,1,1.035-.308,5.415,5.415,0,0,1,2.2,0,5.856,5.856,0,0,1,1.035.308,6.01,6.01,0,0,1,.947.506,5.5,5.5,0,0,1,2.421,4.6,5.129,5.129,0,0,1-.11,1.1,5.5,5.5,0,0,1-.308,1.024,6.6,6.6,0,0,1-.506.957,5.349,5.349,0,0,1-1.519,1.519,6.01,6.01,0,0,1-.947.506,5.854,5.854,0,0,1-1.035.308,5.051,5.051,0,0,1-1.079.088Z" transform="translate(5.431 10.629)" fill="#fff"/><path d="M133.836,141.006a5.03,5.03,0,0,1-1.1-.11,5.591,5.591,0,0,1-1.035-.308,6.008,6.008,0,0,1-.947-.506,5.03,5.03,0,0,1-.836-.682,5.5,5.5,0,0,1,0-7.792,5.646,5.646,0,0,1,.836-.682,6.009,6.009,0,0,1,.946-.506,5.59,5.59,0,0,1,1.035-.308,5.414,5.414,0,0,1,2.146,0,5.5,5.5,0,0,1,1.024.308,5.659,5.659,0,0,1,.958.506,6.286,6.286,0,0,1,.836.682,5.5,5.5,0,0,1-.836,8.475,5.657,5.657,0,0,1-.958.506,5.5,5.5,0,0,1-1.024.308A5.052,5.052,0,0,1,133.836,141.006Z" transform="translate(10.46 10.631)" fill="#fff"/><path d="M117.173,141.01a5.5,5.5,0,0,1-3.9-1.607,5.612,5.612,0,0,1-.682-.847,5.218,5.218,0,0,1-.506-.947,5.5,5.5,0,0,1-.319-1.024,5.954,5.954,0,0,1-.1-1.1,5.865,5.865,0,0,1,.1-1.1,5.5,5.5,0,0,1,.319-1.024,5.711,5.711,0,0,1,.506-.958,5.5,5.5,0,0,1,5.646-2.333,5.591,5.591,0,0,1,1.035.308,6.01,6.01,0,0,1,.947.506,5.028,5.028,0,0,1,.836.682,6.13,6.13,0,0,1,.682.836,5.712,5.712,0,0,1,.506.958,5.5,5.5,0,0,1,.319,1.024,5.338,5.338,0,0,1,0,2.2,5.5,5.5,0,0,1-.319,1.024,5.582,5.582,0,0,1-2.025,2.476,6.007,6.007,0,0,1-.946.506,5.592,5.592,0,0,1-1.035.308A5.028,5.028,0,0,1,117.173,141.01Z" transform="translate(8.787 10.627)" fill="#fff"/><path d="M100.505,141.01a5.129,5.129,0,0,1-1.1-.11,5.5,5.5,0,0,1-1.024-.308,6.009,6.009,0,0,1-.947-.506,5.118,5.118,0,0,1-.847-.682,5.5,5.5,0,0,1-.682-.836,6.6,6.6,0,0,1-.506-.958,5.5,5.5,0,0,1-.308-1.024,5.338,5.338,0,0,1,0-2.2,5.5,5.5,0,0,1,.308-1.024,6.6,6.6,0,0,1,.506-.958,5.5,5.5,0,0,1,.682-.836,5.117,5.117,0,0,1,.847-.682,6.009,6.009,0,0,1,.947-.506,5.5,5.5,0,0,1,4.2,0,6.01,6.01,0,0,1,.947.506,5.58,5.58,0,0,1,1.53,1.519,6.6,6.6,0,0,1,.506.958,5.5,5.5,0,0,1,.308,1.024,5.338,5.338,0,0,1,0,2.2,5.5,5.5,0,0,1-.308,1.024,6.6,6.6,0,0,1-.506.958,5.58,5.58,0,0,1-1.53,1.519,6.01,6.01,0,0,1-.947.506,5.5,5.5,0,0,1-1.024.308A5.129,5.129,0,0,1,100.505,141.01Z" transform="translate(7.108 10.627)" fill="#fff"/><path d="M150.5,141.006a5.5,5.5,0,0,1-3.06-10.081,5.659,5.659,0,0,1,.958-.506,5.5,5.5,0,0,1,4.2,0,6.6,6.6,0,0,1,.957.506,5.5,5.5,0,0,1,.836,8.474,5.58,5.58,0,0,1-3.9,1.607Z" transform="translate(12.139 10.631)" fill="#fff"/></g></svg>