<svg xmlns="http://www.w3.org/2000/svg" width="165" height="161.334" viewBox="0 0 165 161.334"><g transform="translate(-24.31 -27.673)"><path d="M174.541,185.2H39.079A14.791,14.791,0,0,1,24.31,170.43V75.45a5.45,5.45,0,1,1,10.9,0v94.98a3.869,3.869,0,0,0,3.869,3.869H174.541a3.869,3.869,0,0,0,3.869-3.869V75.45a5.45,5.45,0,1,1,10.9,0v94.98A14.791,14.791,0,0,1,174.541,185.2Z" transform="translate(0 3.808)" fill="#fff"/><path d="M138.2,57.459a5.45,5.45,0,0,1-2.943-.872L110.765,40.76a13.745,13.745,0,0,0-14.889,0L71.384,56.587a5.45,5.45,0,0,1-5.908-9.156L89.957,31.6a24.677,24.677,0,0,1,26.726,0l24.481,15.826A5.45,5.45,0,0,1,138.2,57.459Z" transform="translate(3.49)" fill="#fff"/><path d="M106.81,131.812a26.617,26.617,0,0,1-15.423-4.894L26.61,81.139a5.45,5.45,0,0,1,.2-9.025L49.357,57.508a5.45,5.45,0,1,1,5.908,9.156l-15.783,10.2,58.194,41.212a15.859,15.859,0,0,0,18.268,0l58.194-41.157-15.783-10.2a5.45,5.45,0,0,1,5.908-9.156l22.552,14.518a5.45,5.45,0,0,1,.2,9.025l-64.777,45.779a26.617,26.617,0,0,1-15.423,4.927Z" transform="translate(0 2.599)" fill="#fff"/><path d="M159.447,99.1a5.45,5.45,0,0,1-5.45-5.45V55.9H55.9V93.645a5.45,5.45,0,0,1-10.9,0V50.45A5.45,5.45,0,0,1,50.45,45h109a5.45,5.45,0,0,1,5.45,5.45v43.2a5.45,5.45,0,0,1-5.45,5.45Z" transform="translate(1.862 1.559)" fill="#fff"/><path d="M129.949,92.9H75.45a5.45,5.45,0,1,1,0-10.9h54.5a5.45,5.45,0,0,1,0,10.9Z" transform="translate(4.111 4.888)" fill="#fff"/><path d="M129.949,74.9H75.45a5.45,5.45,0,1,1,0-10.9h54.5a5.45,5.45,0,0,1,0,10.9Z" transform="translate(4.111 3.268)" fill="#fff"/></g></svg>