<svg xmlns="http://www.w3.org/2000/svg" width="176.684" height="171.575" viewBox="0 0 176.684 171.575"><g transform="translate(-24.311 -28.689)"><path d="M158.7,200.264H66.608a18.173,18.173,0,0,1-18.149-18.149V117.757H30.146a5.836,5.836,0,0,1-4.12-9.968L99.814,34a18.173,18.173,0,0,1,25.678,0l73.789,73.789a5.836,5.836,0,0,1-4.12,9.968H176.847v64.358A18.173,18.173,0,0,1,158.7,200.264ZM44.233,106.085H54.294a5.836,5.836,0,0,1,5.836,5.836v70.194a6.489,6.489,0,0,0,6.478,6.478H158.7a6.489,6.489,0,0,0,6.478-6.478V111.921a5.836,5.836,0,0,1,5.836-5.836h10.061L117.24,42.253a6.489,6.489,0,0,0-9.174,0Z" fill="#fff"/><path d="M134.194,185a5.836,5.836,0,0,1-5.836-5.836V138.15a6.489,6.489,0,0,0-6.478-6.478H88.15a6.49,6.49,0,0,0-6.478,6.478v41.014a5.836,5.836,0,0,1-11.672,0V138.15A18.173,18.173,0,0,1,88.15,120h33.731A18.173,18.173,0,0,1,140.03,138.15v41.014A5.836,5.836,0,0,1,134.194,185Z" transform="translate(7.638 15.264)" fill="#fff"/><path d="M102.925,110.851a20.425,20.425,0,1,1,20.425-20.425,20.425,20.425,0,0,1-20.425,20.425Zm0-29.179a8.754,8.754,0,1,0,8.754,8.754,8.754,8.754,0,0,0-8.754-8.754Z" transform="translate(9.727 6.906)" fill="#fff"/><path d="M100.836,185A5.836,5.836,0,0,1,95,179.164V125.836a5.836,5.836,0,0,1,11.672,0v53.328A5.836,5.836,0,0,1,100.836,185Z" transform="translate(11.817 15.264)" fill="#fff"/><path d="M155.015,92.821a5.836,5.836,0,0,1-5.836-5.836V43.706A3.175,3.175,0,0,0,146,40.532H131.672V58.564a5.836,5.836,0,1,1-11.672,0V34.7a5.836,5.836,0,0,1,5.836-5.836H146a14.858,14.858,0,0,1,14.846,14.846V86.985A5.836,5.836,0,0,1,155.015,92.821Z" transform="translate(15.996 0.029)" fill="#fff"/></g></svg>