<svg xmlns="http://www.w3.org/2000/svg" xmlns:xlink="http://www.w3.org/1999/xlink" width="575.759" height="376.675" viewBox="0 0 575.759 376.675"><defs><linearGradient id="a" x1="0.476" y1="0.5" x2="-0.551" y2="0.454" gradientUnits="objectBoundingBox"><stop offset="0" stop-color="#fff"/><stop offset="1" stop-color="gray"/></linearGradient><clipPath id="b"><rect width="7.85" height="136.957" fill="none"/></clipPath></defs><g transform="translate(-827.902 -233.614)"><path d="M0,0H370.853V169.457H0Z" transform="translate(1032.808 440.832)" fill="url(#a)"/><path d="M0,0,141.907,70.745" transform="matrix(0.996, 0.087, -0.087, 0.996, 836.974, 332.223)" fill="none" stroke="#00c2ff" stroke-linecap="round" stroke-width="4" stroke-dasharray="14 12"/><g transform="translate(872.15 317.105)"><path d="M0,0,70.57,15.933,86.5,86.5,12.159,74.344Z" transform="translate(0.092 61.167) rotate(-45)" fill="#00c2ff"/><path d="M0,0,70.57,15.933,86.5,86.5,12.159,74.344Z" transform="translate(0.092 61.167) rotate(-45)" fill="#4eedff"/><path d="M3104.665,569.274v84.388l-60.528-43.977-.732-83.2Z" transform="translate(-3043.406 -465.325)" fill="#00c2ff"/><path d="M3047.331,529.226v5.407l-3.878-2.818-.047-5.331Z" transform="translate(-3036.79 -446.487)" fill="#fff"/><path d="M3047.331,529.226v5.407l-3.878-2.818-.047-5.331Z" transform="translate(-3036.79 -429.186)" fill="#fff"/><path d="M3047.331,529.226v5.407l-3.878-2.818-.047-5.331Z" transform="translate(-3036.79 -411.885)" fill="#fff"/><path d="M3047.331,529.226v5.407l-3.878-2.818-.047-5.331Z" transform="translate(-3036.79 -394.585)" fill="#fff"/><path d="M3047.331,529.226v5.407l-3.878-2.818-.047-5.331Z" transform="translate(-3036.79 -429.186)" fill="#c9f2ff"/><path d="M3047.331,529.226v5.407l-3.878-2.818-.047-5.331Z" transform="translate(-3036.79 -411.885)" fill="#c9f2ff"/><path d="M3047.331,529.226v5.407l-3.878-2.818-.047-5.331Z" transform="translate(-3036.79 -394.585)" fill="#c9f2ff"/><path d="M3067.256,542.615v5.407l-23.8-16.206-.047-5.331Z" transform="translate(-3027.336 -439.832)" fill="#0058cb"/><path d="M3056.931,534.919v5.407l-13.478-8.511-.047-5.331Z" transform="translate(-2999.58 -420.757)" fill="#84ffea"/><path d="M3056.931,534.919v5.407l-13.478-8.511-.047-5.331Z" transform="translate(-2999.58 -403.457)" fill="#84ffea"/><path d="M3056.931,534.919v5.407l-13.478-8.511-.047-5.331Z" transform="translate(-2999.58 -386.156)" fill="#84ffea"/><path d="M3056.931,534.919v5.407l-13.478-8.511-.047-5.331Z" transform="translate(-2999.58 -368.856)" fill="#84ffea"/><path d="M3067.256,542.615v5.407l-23.8-16.206-.047-5.331Z" transform="translate(-3027.336 -422.532)" fill="#0058cb"/><path d="M3067.256,542.615v5.407l-23.8-16.206-.047-5.331Z" transform="translate(-3027.336 -405.038)" fill="#0058cb"/><path d="M3067.256,542.615v5.407l-23.8-16.206-.047-5.331Z" transform="translate(-3027.336 -387.931)" fill="#0058cb"/><path d="M3067.256,542.615v5.407l-23.8-16.206-.047-5.331Z" transform="translate(-3026.586 -368.856)" fill="#fff"/><path d="M3043.453,531.815l-.047-5.331Z" transform="translate(-3026.586 -422.532)" fill="#fff"/><path d="M3045.055,569.276v84.388l61.167-44.571V526.488Z" transform="translate(-2983.796 -465.326)" fill="#0060b4"/><path d="M3043.406,542.615v5.407l23.8-16.206.047-5.331Z" transform="translate(-2960.135 -438.738)" fill="#30ffc7"/><ellipse cx="9.316" cy="17.744" rx="9.316" ry="17.744" transform="translate(90.389 110.138) rotate(19)" fill="#002a4e"/></g><g transform="translate(909.413 233.614)"><path d="M0,0,141.139,31.867l31.867,141.139L24.318,148.688Z" transform="translate(0.185 122.334) rotate(-45)" fill="#00c2ff"/><path d="M0,0,141.139,31.867l31.867,141.139L24.318,148.688Z" transform="translate(0.185 122.334) rotate(-45)" fill="#4eedff"/><path d="M3165.924,612.064V780.84l-121.055-87.954-1.463-166.4Z" transform="translate(-3043.406 -404.165)" fill="#00c2ff"/><g transform="translate(13.234 159.996)" clip-path="url(#b)"><g transform="translate(-934.322 -413.951)"><path d="M3052.254,532.665v12.189l-8.742-6.352-.105-12.017Z" transform="translate(-2109.084 -112.534)" fill="#fff"/></g><g transform="translate(-934.322 -374.951)"><path d="M3052.254,532.665v12.189l-8.742-6.352-.105-12.017Z" transform="translate(-2109.084 -112.534)" fill="#fff"/></g><g transform="translate(-934.322 -335.951)"><path d="M3052.254,532.665v12.189l-8.742-6.352-.105-12.017Z" transform="translate(-2109.084 -112.534)" fill="#fff"/></g><g transform="translate(-934.322 -296.951)"><path d="M3052.254,532.665v12.189l-8.742-6.352-.105-12.017Z" transform="translate(-2109.084 -112.534)" fill="#fff"/></g></g><path d="M3051.256,531.968v10.814l-7.756-5.635-.094-10.662Z" transform="translate(-3030.173 -331.887)" fill="#c9f2ff"/><path d="M3051.256,531.968v10.814l-7.756-5.635-.094-10.662Z" transform="translate(-3030.173 -297.286)" fill="#c9f2ff"/><path d="M3051.256,531.968v10.814l-7.756-5.635-.094-10.662Z" transform="translate(-3030.173 -262.685)" fill="#c9f2ff"/><path d="M3091.1,558.745v10.814l-47.6-32.413-.094-10.662Z" transform="translate(-3011.266 -353.18)" fill="#0058cb"/><path d="M3070.456,543.354v10.814L3043.5,537.146l-.094-10.662Z" transform="translate(-2955.753 -315.03)" fill="#84ffea"/><path d="M3070.456,543.354v10.814L3043.5,537.146l-.094-10.662Z" transform="translate(-2955.753 -280.429)" fill="#84ffea"/><path d="M3070.456,543.354v10.814L3043.5,537.146l-.094-10.662Z" transform="translate(-2955.753 -245.828)" fill="#84ffea"/><path d="M3070.456,543.354v10.814L3043.5,537.146l-.094-10.662Z" transform="translate(-2955.753 -211.227)" fill="#84ffea"/><path d="M3091.1,558.745v10.814l-47.6-32.413-.094-10.662Z" transform="translate(-3011.266 -318.579)" fill="#0058cb"/><path d="M3091.1,558.745v10.814l-47.6-32.413-.094-10.662Z" transform="translate(-3011.266 -283.592)" fill="#0058cb"/><path d="M3091.1,558.745v10.814l-47.6-32.413-.094-10.662Z" transform="translate(-3011.266 -249.377)" fill="#0058cb"/><path d="M3091.1,558.745v10.814l-47.6-32.413-.094-10.662Z" transform="translate(-3009.767 -211.227)" fill="#fff"/><path d="M3043.5,537.146l-.094-10.662Z" transform="translate(-3009.767 -318.579)" fill="#fff"/><path d="M3045.055,612.064V780.84L3167.389,691.7V526.488Z" transform="translate(-2922.537 -404.165)" fill="#0060b4"/><path d="M3043.406,558.745v10.814l47.605-32.413.094-10.662Z" transform="translate(-2876.865 -350.992)" fill="#30ffc7"/><ellipse cx="18.631" cy="35.488" rx="18.631" ry="35.488" transform="translate(180.779 220.276) rotate(19)" fill="#002a4e"/><path d="M3243.979,674.031l141.907,70.745" transform="translate(-3066.029 -420.807)" fill="none" stroke="#00c2ff" stroke-linecap="round" stroke-width="4" stroke-dasharray="14 12"/></g><path d="M3043.406,531.968v10.814l7.756-5.635.094-10.662Z" transform="translate(-1912.246 -127.715)" fill="#c9f2ff"/></g></svg>